<?xml version="1.0" ?><!DOCTYPE svg  PUBLIC '-//W3C//DTD SVG 1.1//EN'  'http://www.w3.org/Graphics/SVG/1.1/DTD/svg11.dtd'><svg height="512px" style="enable-background:new 0 0 512 512;" version="1.1" viewBox="0 0 512 512" width="512px" xml:space="preserve" xmlns="http://www.w3.org/2000/svg" xmlns:xlink="http://www.w3.org/1999/xlink"><g id="comp_x5F_309-smugmug"><g><g id="_x32_9-smugmug_5_"><g><g><g><path d="M411.697,60.502c0,19.053-19.862,34.495-44.357,34.495c-24.496,0-44.357-15.441-44.357-34.495        C322.982,41.45,342.842,26,367.34,26C391.835,26,411.697,41.449,411.697,60.502L411.697,60.502z"/><path d="M452.901,164.036H73.904c0,0-10.836,2.298-21.649,24.976C-1.905,302.258,19.77,486,214.684,486        c194.892,0,270.7-250.645,270.7-284.595C485.384,167.393,452.901,164.036,452.901,164.036L452.901,164.036z M214.684,440.082        c-41.086,0-95.991-10.027-124.379-58.125c-30.734-52.152-21.356-125.925,1.578-171.926H439.45        C428.444,256.032,362.47,440.082,214.684,440.082L214.684,440.082z"/></g><path d="M212.136,60.502c0,19.053-19.848,34.495-44.327,34.495c-24.478,0-44.329-15.441-44.329-34.495       C123.48,41.45,143.332,26,167.809,26C192.287,26,212.136,41.449,212.136,60.502L212.136,60.502z"/></g></g></g></g></g><g id="Layer_1"/></svg>